# xmcd
#
# Track frame offsets:
#	150
#	10302
#	19110
#	30467
#	39021
#	51526
#	63180
#	73020
#	83140
#	93213
#	104775
#	114254
#	123022
#	132072
#	142858
#
# Disc length: 2044 seconds
#
# Revision: 1
# Processed by: cddbd v1.5.2PL0 Copyright (c) Steve Scherf et al.
# Submitted via: audiograbber 1.83.01
#
DISCID=b807fa0f
DTITLE=Tennessee Drifters - Tennessee Drifters
DYEAR=2014
DGENRE=Country
TTITLE0=Daddy Sang Bass
TTITLE1=Story Of A Broken Heart
TTITLE2=Understand Your Man
TTITLE3=One Woman Man
TTITLE4=I Wasn't Drunk(I Was Just Drinkin')
TTITLE5=You're The Nearesr Thing To Heaven
TTITLE6=Settin' The WoodsOn Fire
TTITLE7=I'm Movin' On
TTITLE8=I'll Miss You
TTITLE9=Mean Eyed Cat
TTITLE10=Guess Things Happen That Way
TTITLE11=I Got Stripes
TTITLE12=It Was Jesus
TTITLE13=Walk On By
TTITLE14=Ring Of Fire
EXTD=
EXTT0=
EXTT1=
EXTT2=
EXTT3=
EXTT4=
EXTT5=
EXTT6=
EXTT7=
EXTT8=
EXTT9=
EXTT10=
EXTT11=
EXTT12=
EXTT13=
EXTT14=
PLAYORDER=
